<?xml version="1.0" encoding="UTF-8"?>
<!--Generator: Apple Native CoreSVG 175-->
<!DOCTYPE svg
PUBLIC "-//W3C//DTD SVG 1.1//EN"
       "http://www.w3.org/Graphics/SVG/1.1/DTD/svg11.dtd">
<svg version="1.1" xmlns="http://www.w3.org/2000/svg" xmlns:xlink="http://www.w3.org/1999/xlink" width="3300" height="2200">
 <!--glyph: "uni10035F.medium", point size: 100.0, font version: "17.3d3e1", template writer version: "65.1"-->
 <style>.multicolor-0:systemGrayColor {fill:#8E8E93;opacity:1.0}

.SFSymbolsPreview8E8E93 {fill:#8E8E93;opacity:1.0}
</style>
 <g id="Notes">
  <rect height="2200" id="artboard" style="fill:white;opacity:1" width="3300" x="0" y="0"/>
  <line style="fill:none;stroke:black;opacity:1;stroke-width:0.5;" x1="263" x2="3036" y1="292" y2="292"/>
  <text style="stroke:none;fill:black;font-family:sans-serif;font-size:13;font-weight:bold;" transform="matrix(1 0 0 1 263 322)">Weight/Scale Variations</text>
  <text style="stroke:none;fill:black;font-family:sans-serif;font-size:13;text-anchor:middle;" transform="matrix(1 0 0 1 559.711 322)">Ultralight</text>
  <text style="stroke:none;fill:black;font-family:sans-serif;font-size:13;text-anchor:middle;" transform="matrix(1 0 0 1 856.422 322)">Thin</text>
  <text style="stroke:none;fill:black;font-family:sans-serif;font-size:13;text-anchor:middle;" transform="matrix(1 0 0 1 1153.13 322)">Light</text>
  <text style="stroke:none;fill:black;font-family:sans-serif;font-size:13;text-anchor:middle;" transform="matrix(1 0 0 1 1449.84 322)">Regular</text>
  <text style="stroke:none;fill:black;font-family:sans-serif;font-size:13;text-anchor:middle;" transform="matrix(1 0 0 1 1746.56 322)">Medium</text>
  <text style="stroke:none;fill:black;font-family:sans-serif;font-size:13;text-anchor:middle;" transform="matrix(1 0 0 1 2043.27 322)">Semibold</text>
  <text style="stroke:none;fill:black;font-family:sans-serif;font-size:13;text-anchor:middle;" transform="matrix(1 0 0 1 2339.98 322)">Bold</text>
  <text style="stroke:none;fill:black;font-family:sans-serif;font-size:13;text-anchor:middle;" transform="matrix(1 0 0 1 2636.69 322)">Heavy</text>
  <text style="stroke:none;fill:black;font-family:sans-serif;font-size:13;text-anchor:middle;" transform="matrix(1 0 0 1 2933.4 322)">Black</text>
  <line style="fill:none;stroke:black;opacity:1;stroke-width:0.5;" x1="263" x2="3036" y1="1903" y2="1903"/>
  <g transform="matrix(1 0 0 1 263 1933)">
   <path d="M9.24805 0.830078Q10.8691 0.830078 12.2949 0.214844Q13.7207-0.400391 14.8096-1.49414Q15.8984-2.58789 16.5186-4.01367Q17.1387-5.43945 17.1387-7.05078Q17.1387-8.66211 16.5186-10.0879Q15.8984-11.5137 14.8047-12.6074Q13.7109-13.7012 12.2852-14.3164Q10.8594-14.9316 9.23828-14.9316Q7.62695-14.9316 6.20117-14.3164Q4.77539-13.7012 3.69141-12.6074Q2.60742-11.5137 1.9873-10.0879Q1.36719-8.66211 1.36719-7.05078Q1.36719-5.43945 1.9873-4.01367Q2.60742-2.58789 3.69629-1.49414Q4.78516-0.400391 6.21094 0.214844Q7.63672 0.830078 9.24805 0.830078ZM9.24805-0.654297Q7.91992-0.654297 6.7627-1.14746Q5.60547-1.64062 4.73145-2.51953Q3.85742-3.39844 3.36426-4.56055Q2.87109-5.72266 2.87109-7.05078Q2.87109-8.37891 3.35938-9.54102Q3.84766-10.7031 4.72168-11.582Q5.5957-12.4609 6.75293-12.9541Q7.91016-13.4473 9.23828-13.4473Q10.5762-13.4473 11.7334-12.9541Q12.8906-12.4609 13.7695-11.582Q14.6484-10.7031 15.1465-9.54102Q15.6445-8.37891 15.6445-7.05078Q15.6445-5.72266 15.1514-4.56055Q14.6582-3.39844 13.7842-2.51953Q12.9102-1.64062 11.748-1.14746Q10.5859-0.654297 9.24805-0.654297ZM5.6543-7.05078Q5.6543-6.72852 5.85938-6.52832Q6.06445-6.32812 6.40625-6.32812L8.51562-6.32812L8.51562-4.20898Q8.51562-3.88672 8.71094-3.67676Q8.90625-3.4668 9.23828-3.4668Q9.56055-3.4668 9.77051-3.67676Q9.98047-3.88672 9.98047-4.20898L9.98047-6.32812L12.0898-6.32812Q12.4219-6.32812 12.627-6.52832Q12.832-6.72852 12.832-7.05078Q12.832-7.38281 12.627-7.58789Q12.4219-7.79297 12.0898-7.79297L9.98047-7.79297L9.98047-9.90234Q9.98047-10.2344 9.77051-10.4443Q9.56055-10.6543 9.23828-10.6543Q8.90625-10.6543 8.71094-10.4443Q8.51562-10.2344 8.51562-9.90234L8.51562-7.79297L6.40625-7.79297Q6.06445-7.79297 5.85938-7.58789Q5.6543-7.38281 5.6543-7.05078Z"/>
  </g>
  <g transform="matrix(1 0 0 1 281.867 1933)">
   <path d="M11.709 2.91016Q13.75 2.91016 15.5518 2.12891Q17.3535 1.34766 18.7305-0.0292969Q20.1074-1.40625 20.8887-3.20801Q21.6699-5.00977 21.6699-7.05078Q21.6699-9.0918 20.8887-10.8936Q20.1074-12.6953 18.7305-14.0723Q17.3535-15.4492 15.5469-16.2305Q13.7402-17.0117 11.6992-17.0117Q9.6582-17.0117 7.85645-16.2305Q6.05469-15.4492 4.68262-14.0723Q3.31055-12.6953 2.5293-10.8936Q1.74805-9.0918 1.74805-7.05078Q1.74805-5.00977 2.5293-3.20801Q3.31055-1.40625 4.6875-0.0292969Q6.06445 1.34766 7.86621 2.12891Q9.66797 2.91016 11.709 2.91016ZM11.709 1.25Q9.98047 1.25 8.47656 0.605469Q6.97266-0.0390625 5.83496-1.17676Q4.69727-2.31445 4.05762-3.81836Q3.41797-5.32227 3.41797-7.05078Q3.41797-8.7793 4.05762-10.2832Q4.69727-11.7871 5.83008-12.9297Q6.96289-14.0723 8.4668-14.7119Q9.9707-15.3516 11.6992-15.3516Q13.4277-15.3516 14.9316-14.7119Q16.4355-14.0723 17.5781-12.9297Q18.7207-11.7871 19.3652-10.2832Q20.0098-8.7793 20.0098-7.05078Q20.0098-5.32227 19.3701-3.81836Q18.7305-2.31445 17.5928-1.17676Q16.4551-0.0390625 14.9463 0.605469Q13.4375 1.25 11.709 1.25ZM7.17773-7.05078Q7.17773-6.69922 7.41211-6.47461Q7.64648-6.25 8.01758-6.25L10.8887-6.25L10.8887-3.36914Q10.8887-2.99805 11.1133-2.76855Q11.3379-2.53906 11.6895-2.53906Q12.0605-2.53906 12.29-2.76855Q12.5195-2.99805 12.5195-3.36914L12.5195-6.25L15.4004-6.25Q15.7715-6.25 16.001-6.47461Q16.2305-6.69922 16.2305-7.05078Q16.2305-7.42188 16.001-7.65137Q15.7715-7.88086 15.4004-7.88086L12.5195-7.88086L12.5195-10.752Q12.5195-11.1328 12.29-11.3623Q12.0605-11.5918 11.6895-11.5918Q11.3379-11.5918 11.1133-11.3574Q10.8887-11.123 10.8887-10.752L10.8887-7.88086L8.01758-7.88086Q7.63672-7.88086 7.40723-7.65137Q7.17773-7.42188 7.17773-7.05078Z"/>
  </g>
  <g transform="matrix(1 0 0 1 305.646 1933)">
   <path d="M14.9707 5.66406Q17.0605 5.66406 18.96 5.01465Q20.8594 4.36523 22.4512 3.19336Q24.043 2.02148 25.2197 0.429688Q26.3965-1.16211 27.0459-3.06641Q27.6953-4.9707 27.6953-7.05078Q27.6953-9.14062 27.0459-11.04Q26.3965-12.9395 25.2197-14.5312Q24.043-16.123 22.4512-17.2998Q20.8594-18.4766 18.9551-19.126Q17.0508-19.7754 14.9609-19.7754Q12.8711-19.7754 10.9717-19.126Q9.07227-18.4766 7.48535-17.2998Q5.89844-16.123 4.72168-14.5312Q3.54492-12.9395 2.90039-11.04Q2.25586-9.14062 2.25586-7.05078Q2.25586-4.9707 2.90527-3.06641Q3.55469-1.16211 4.72656 0.429688Q5.89844 2.02148 7.49023 3.19336Q9.08203 4.36523 10.9814 5.01465Q12.8809 5.66406 14.9707 5.66406ZM14.9707 3.84766Q13.1641 3.84766 11.5283 3.2959Q9.89258 2.74414 8.53516 1.74805Q7.17773 0.751953 6.17676-0.610352Q5.17578-1.97266 4.62891-3.6084Q4.08203-5.24414 4.08203-7.05078Q4.08203-8.86719 4.62891-10.5029Q5.17578-12.1387 6.17188-13.501Q7.16797-14.8633 8.52539-15.8594Q9.88281-16.8555 11.5186-17.4023Q13.1543-17.9492 14.9609-17.9492Q16.7773-17.9492 18.4131-17.4023Q20.0488-16.8555 21.4111-15.8594Q22.7734-14.8633 23.7695-13.501Q24.7656-12.1387 25.3174-10.5029Q25.8691-8.86719 25.8691-7.05078Q25.8789-5.24414 25.332-3.6084Q24.7852-1.97266 23.7842-0.610352Q22.7832 0.751953 21.4209 1.74805Q20.0586 2.74414 18.4229 3.2959Q16.7871 3.84766 14.9707 3.84766ZM9.19922-7.05078Q9.19922-6.66992 9.45801-6.4209Q9.7168-6.17188 10.1172-6.17188L14.0625-6.17188L14.0625-2.2168Q14.0625-1.81641 14.3115-1.55762Q14.5605-1.29883 14.9512-1.29883Q15.3516-1.29883 15.6104-1.55273Q15.8691-1.80664 15.8691-2.2168L15.8691-6.17188L19.8242-6.17188Q20.2246-6.17188 20.4785-6.4209Q20.7324-6.66992 20.7324-7.05078Q20.7324-7.46094 20.4785-7.71484Q20.2246-7.96875 19.8242-7.96875L15.8691-7.96875L15.8691-11.9141Q15.8691-12.3242 15.6104-12.583Q15.3516-12.8418 14.9512-12.8418Q14.5605-12.8418 14.3115-12.583Q14.0625-12.3242 14.0625-11.9141L14.0625-7.96875L10.1172-7.96875Q9.70703-7.96875 9.45312-7.71484Q9.19922-7.46094 9.19922-7.05078Z"/>
  </g>
  <text style="stroke:none;fill:black;font-family:sans-serif;font-size:13;font-weight:bold;" transform="matrix(1 0 0 1 263 1953)">Design Variations</text>
  <text style="stroke:none;fill:black;font-family:sans-serif;font-size:13;" transform="matrix(1 0 0 1 263 1971)">Symbols are supported in up to nine weights and three scales.</text>
  <text style="stroke:none;fill:black;font-family:sans-serif;font-size:13;" transform="matrix(1 0 0 1 263 1989)">For optimal layout with text and other symbols, vertically align</text>
  <text style="stroke:none;fill:black;font-family:sans-serif;font-size:13;" transform="matrix(1 0 0 1 263 2007)">symbols with the adjacent text.</text>
  <line style="fill:none;stroke:#00AEEF;stroke-width:0.5;opacity:1.0;" x1="776" x2="776" y1="1919" y2="1933"/>
  <g transform="matrix(1 0 0 1 776 1933)">
   <path d="M3.31055 0.15625Q3.70117 0.15625 3.91602-0.00976562Q4.13086-0.175781 4.26758-0.585938L5.52734-4.0332L11.2891-4.0332L12.5488-0.585938Q12.6855-0.175781 12.9004-0.00976562Q13.1152 0.15625 13.4961 0.15625Q13.8867 0.15625 14.1162-0.0585938Q14.3457-0.273438 14.3457-0.644531Q14.3457-0.869141 14.2383-1.17188L9.6582-13.3691Q9.48242-13.8184 9.17969-14.043Q8.87695-14.2676 8.4082-14.2676Q7.5-14.2676 7.17773-13.3789L2.59766-1.16211Q2.49023-0.859375 2.49023-0.634766Q2.49023-0.263672 2.70996-0.0537109Q2.92969 0.15625 3.31055 0.15625ZM6.00586-5.51758L8.37891-12.0898L8.42773-12.0898L10.8008-5.51758Z"/>
  </g>
  <line style="fill:none;stroke:#00AEEF;stroke-width:0.5;opacity:1.0;" x1="793.197" x2="793.197" y1="1919" y2="1933"/>
  <text style="stroke:none;fill:black;font-family:sans-serif;font-size:13;font-weight:bold;" transform="matrix(1 0 0 1 776 1953)">Margins</text>
  <text style="stroke:none;fill:black;font-family:sans-serif;font-size:13;" transform="matrix(1 0 0 1 776 1971)">Leading and trailing margins on the left and right side of each symbol</text>
  <text style="stroke:none;fill:black;font-family:sans-serif;font-size:13;" transform="matrix(1 0 0 1 776 1989)">can be adjusted by modifying the x-location of the margin guidelines.</text>
  <text style="stroke:none;fill:black;font-family:sans-serif;font-size:13;" transform="matrix(1 0 0 1 776 2007)">Modifications are automatically applied proportionally to all</text>
  <text style="stroke:none;fill:black;font-family:sans-serif;font-size:13;" transform="matrix(1 0 0 1 776 2025)">scales and weights.</text>
  <g transform="matrix(1 0 0 1 1289 1933)">
   <path d="M2.8418 1.86523L4.54102 3.57422Q5.18555 4.22852 5.90332 4.17969Q6.62109 4.13086 7.31445 3.35938L18.0078-8.42773L17.041-9.4043L6.42578 2.27539Q6.16211 2.57812 5.89355 2.61719Q5.625 2.65625 5.27344 2.30469L4.10156 1.14258Q3.75 0.791016 3.79395 0.522461Q3.83789 0.253906 4.14062-0.0195312L15.6152-10.8203L14.6387-11.7871L3.04688-0.898438Q2.30469-0.214844 2.25098 0.498047Q2.19727 1.21094 2.8418 1.86523ZM9.25781-16.3281Q8.94531-16.0254 8.90625-15.6348Q8.86719-15.2441 9.04297-14.9512Q9.21875-14.6777 9.55566-14.541Q9.89258-14.4043 10.3809-14.5215Q11.4746-14.7754 12.5977-14.7314Q13.7207-14.6875 14.7949-13.9844L14.209-12.5293Q13.9551-11.9043 14.0674-11.4404Q14.1797-10.9766 14.5801-10.5664L16.875-8.25195Q17.2363-7.88086 17.5781-7.82227Q17.9199-7.76367 18.3398-7.8418L19.4043-8.03711L20.0684-7.36328L20.0293-6.80664Q20-6.43555 20.1221-6.12305Q20.2441-5.81055 20.6055-5.44922L21.3672-4.70703Q21.7285-4.3457 22.1533-4.33105Q22.5781-4.31641 22.9297-4.66797L25.8398-7.58789Q26.1914-7.93945 26.1816-8.35449Q26.1719-8.76953 25.8105-9.13086L25.0391-9.89258Q24.6875-10.2539 24.3799-10.3857Q24.0723-10.5176 23.7109-10.4883L23.1348-10.4395L22.4902-11.0742L22.7344-12.1973Q22.832-12.6172 22.6953-12.9834Q22.5586-13.3496 22.1191-13.7891L19.9219-15.9766Q18.6719-17.2168 17.2607-17.8369Q15.8496-18.457 14.4189-18.4814Q12.9883-18.5059 11.665-17.959Q10.3418-17.4121 9.25781-16.3281ZM10.752-15.957Q11.6602-16.6211 12.7002-16.9043Q13.7402-17.1875 14.8047-17.085Q15.8691-16.9824 16.8701-16.5137Q17.8711-16.0449 18.7012-15.2051L21.1328-12.793Q21.3086-12.6172 21.3525-12.4512Q21.3965-12.2852 21.3379-12.0312L21.0156-10.5469L22.5195-9.0625L23.5059-9.12109Q23.6914-9.13086 23.7891-9.09668Q23.8867-9.0625 24.0332-8.91602L24.6094-8.33984L22.168-5.89844L21.5918-6.47461Q21.4453-6.62109 21.4062-6.71875Q21.3672-6.81641 21.377-7.01172L21.4453-7.98828L19.9512-9.47266L18.4277-9.21875Q18.1836-9.16992 18.042-9.2041Q17.9004-9.23828 17.7148-9.41406L15.7129-11.416Q15.5176-11.5918 15.4932-11.7529Q15.4688-11.9141 15.5859-12.1875L16.4648-14.2773Q15.293-15.3711 13.8281-15.791Q12.3633-16.2109 10.8398-15.7617Q10.7227-15.7324 10.6885-15.8057Q10.6543-15.8789 10.752-15.957Z"/>
  </g>
  <text style="stroke:none;fill:black;font-family:sans-serif;font-size:13;font-weight:bold;" transform="matrix(1 0 0 1 1289 1953)">Exporting</text>
  <text style="stroke:none;fill:black;font-family:sans-serif;font-size:13;" transform="matrix(1 0 0 1 1289 1971)">Symbols should be outlined when exporting to ensure the</text>
  <text style="stroke:none;fill:black;font-family:sans-serif;font-size:13;" transform="matrix(1 0 0 1 1289 1989)">design is preserved when submitting to Xcode.</text>
  <text id="template-version" style="stroke:none;fill:black;font-family:sans-serif;font-size:13;text-anchor:end;" transform="matrix(1 0 0 1 3036 1933)">Template v.3.0</text>
  <text style="stroke:none;fill:black;font-family:sans-serif;font-size:13;text-anchor:end;" transform="matrix(1 0 0 1 3036 1951)">Requires Xcode 13 or greater</text>
  <text id="descriptive-name" style="stroke:none;fill:black;font-family:sans-serif;font-size:13;text-anchor:end;" transform="matrix(1 0 0 1 3036 1969)">Generated from gear</text>
  <text style="stroke:none;fill:black;font-family:sans-serif;font-size:13;text-anchor:end;" transform="matrix(1 0 0 1 3036 1987)">Typeset at 100 points</text>
  <text style="stroke:none;fill:black;font-family:sans-serif;font-size:13;" transform="matrix(1 0 0 1 263 726)">Small</text>
  <text style="stroke:none;fill:black;font-family:sans-serif;font-size:13;" transform="matrix(1 0 0 1 263 1156)">Medium</text>
  <text style="stroke:none;fill:black;font-family:sans-serif;font-size:13;" transform="matrix(1 0 0 1 263 1586)">Large</text>
 </g>
 <g id="Guides">
  <g id="H-reference" style="fill:#27AAE1;stroke:none;" transform="matrix(1 0 0 1 339 696)">
   <path d="M0.993347 0L3.6377 0L29.3282-67.1326L30.0301-67.1326L30.0301-70.459L28.1227-70.459ZM11.6882-24.4797L46.9818-24.4797L46.2311-26.7288L12.4382-26.7288ZM55.1193 0L57.7637 0L30.6381-70.459L29.4327-70.459L29.4327-67.1326Z"/>
  </g>
  <line id="Baseline-S" style="fill:none;stroke:#27AAE1;opacity:1;stroke-width:0.5;" x1="263" x2="3036" y1="696" y2="696"/>
  <line id="Capline-S" style="fill:none;stroke:#27AAE1;opacity:1;stroke-width:0.5;" x1="263" x2="3036" y1="625.541" y2="625.541"/>
  <g id="H-reference" style="fill:#27AAE1;stroke:none;" transform="matrix(1 0 0 1 339 1126)">
   <path d="M0.993347 0L3.6377 0L29.3282-67.1326L30.0301-67.1326L30.0301-70.459L28.1227-70.459ZM11.6882-24.4797L46.9818-24.4797L46.2311-26.7288L12.4382-26.7288ZM55.1193 0L57.7637 0L30.6381-70.459L29.4327-70.459L29.4327-67.1326Z"/>
  </g>
  <line id="Baseline-M" style="fill:none;stroke:#27AAE1;opacity:1;stroke-width:0.5;" x1="263" x2="3036" y1="1126" y2="1126"/>
  <line id="Capline-M" style="fill:none;stroke:#27AAE1;opacity:1;stroke-width:0.5;" x1="263" x2="3036" y1="1055.54" y2="1055.54"/>
  <g id="H-reference" style="fill:#27AAE1;stroke:none;" transform="matrix(1 0 0 1 339 1556)">
   <path d="M0.993347 0L3.6377 0L29.3282-67.1326L30.0301-67.1326L30.0301-70.459L28.1227-70.459ZM11.6882-24.4797L46.9818-24.4797L46.2311-26.7288L12.4382-26.7288ZM55.1193 0L57.7637 0L30.6381-70.459L29.4327-70.459L29.4327-67.1326Z"/>
  </g>
  <line id="Baseline-L" style="fill:none;stroke:#27AAE1;opacity:1;stroke-width:0.5;" x1="263" x2="3036" y1="1556" y2="1556"/>
  <line id="Capline-L" style="fill:none;stroke:#27AAE1;opacity:1;stroke-width:0.5;" x1="263" x2="3036" y1="1485.54" y2="1485.54"/>
  <line id="left-margin-Ultralight-S" style="fill:none;stroke:#00AEEF;stroke-width:0.5;opacity:1.0;" x1="510.77" x2="510.77" y1="600.785" y2="720.121"/>
  <line id="right-margin-Ultralight-S" style="fill:none;stroke:#00AEEF;stroke-width:0.5;opacity:1.0;" x1="608.653" x2="608.653" y1="600.785" y2="720.121"/>
  <line id="left-margin-Regular-S" style="fill:none;stroke:#00AEEF;stroke-width:0.5;opacity:1.0;" x1="1399.72" x2="1399.72" y1="600.785" y2="720.121"/>
  <line id="right-margin-Regular-S" style="fill:none;stroke:#00AEEF;stroke-width:0.5;opacity:1.0;" x1="1499.97" x2="1499.97" y1="600.785" y2="720.121"/>
  <line id="left-margin-Black-S" style="fill:none;stroke:#00AEEF;stroke-width:0.5;opacity:1.0;" x1="2879.86" x2="2879.86" y1="600.785" y2="720.121"/>
  <line id="right-margin-Black-S" style="fill:none;stroke:#00AEEF;stroke-width:0.5;opacity:1.0;" x1="2986.94" x2="2986.94" y1="600.785" y2="720.121"/>
 </g>
 <g id="Symbols">
  <g id="Black-S" transform="matrix(1 0 0 1 2879.86 696)">
   <path class="multicolor-0:systemGrayColor SFSymbolsPreview8E8E93" d="M53.5645 5.22461Q54.0527 5.22461 54.541 5.2002Q55.0293 5.17578 55.5176 5.12695L57.373 8.64258Q57.9102 9.86328 59.1064 10.4492Q60.3027 11.0352 61.6699 10.8398Q64.5508 10.3516 64.9414 7.37305L65.4785 3.36914Q66.4551 3.125 67.3584 2.7832Q68.2617 2.44141 69.1406 2.09961L72.1191 4.73633Q74.3652 6.73828 76.9531 5.27344Q79.4434 3.75977 78.8086 0.927734L77.9297-3.02734Q78.7109-3.61328 79.4678-4.24805Q80.2246-4.88281 81.0059-5.56641L84.7168-3.95508Q87.3535-2.83203 89.3555-5.17578Q90.1367-6.15234 90.2588-7.42188Q90.3809-8.69141 89.6484-9.86328L87.5-13.3301Q88.0371-14.1602 88.501-14.9902Q88.9648-15.8203 89.4043-16.6992L93.457-16.5039Q94.7754-16.4551 95.8984-17.1875Q97.0215-17.9199 97.4121-19.1895Q97.8516-20.4102 97.4609-21.6797Q97.0703-22.9492 96.0938-23.7305L92.8711-26.2207Q93.1152-27.1973 93.3105-28.1738Q93.5059-29.1504 93.6035-30.0781L97.4121-31.3477Q100.244-32.2754 100.244-35.1562Q100.244-38.0371 97.4121-38.9648L93.6035-40.2344Q93.5059-41.2109 93.3105-42.1631Q93.1152-43.1152 92.8711-44.0918L96.0449-46.582Q97.0703-47.4121 97.4609-48.6328Q97.8516-49.8535 97.4121-51.0254Q97.0215-52.3438 95.8984-53.0762Q94.7754-53.8086 93.457-53.7598L89.4043-53.6133Q88.9648-54.4922 88.501-55.3467Q88.0371-56.2012 87.5-57.0312L89.6484-60.4492Q90.332-61.5723 90.2344-62.8662Q90.1367-64.1602 89.3555-65.0879Q87.3535-67.3828 84.668-66.3086L80.9082-64.7949Q80.2246-65.4297 79.4678-66.04Q78.7109-66.6504 77.9297-67.2852L78.8086-71.2402Q79.4434-74.1211 76.8555-75.5859Q74.1211-77.0508 72.1191-75.0488L69.1406-72.3633Q68.2617-72.7539 67.334-73.0713Q66.4062-73.3887 65.4785-73.6816L64.9414-77.6367Q64.5508-80.6152 61.5723-81.1523Q60.2539-81.3477 59.1064-80.7373Q57.959-80.127 57.4219-79.0527L55.5176-75.4395Q55.0293-75.4883 54.541-75.4883Q54.0527-75.4883 53.5645-75.4883Q53.0762-75.4883 52.5879-75.4883Q52.0996-75.4883 51.5625-75.4395L49.707-79.0039Q48.3887-81.5918 45.4102-81.1035Q42.5293-80.6152 42.1387-77.6367L41.6016-73.6816Q40.6738-73.3887 39.7461-73.0713Q38.8184-72.7539 37.9395-72.3633L35.0098-75Q32.959-77.0508 30.1758-75.5859Q27.6367-74.1211 28.2715-71.1914L29.1504-67.2852Q28.3691-66.6504 27.6123-66.04Q26.8555-65.4297 26.123-64.7949L22.3633-66.3086Q19.7266-67.3828 17.7246-65.0879Q16.9434-64.1602 16.8457-62.8662Q16.748-61.5723 17.4316-60.4492L19.5801-57.0312Q19.0918-56.2012 18.6035-55.3467Q18.1152-54.4922 17.6758-53.6133L13.623-53.7598Q12.3047-53.8086 11.1816-53.0762Q10.0586-52.3438 9.66797-51.0742Q9.22852-49.8535 9.61914-48.6084Q10.0098-47.3633 10.9863-46.582L14.209-44.043Q14.0137-43.1152 13.7939-42.1631Q13.5742-41.2109 13.4766-40.2344L9.66797-38.9648Q6.83594-38.0371 6.83594-35.1562Q6.83594-32.2754 9.66797-31.3477L13.4766-30.0781Q13.5742-29.1504 13.7939-28.1738Q14.0137-27.1973 14.209-26.2207L11.0352-23.7305Q10.0098-22.9492 9.61914-21.6797Q9.22852-20.4102 9.66797-19.2383Q10.0586-17.9199 11.1816-17.1875Q12.3047-16.4551 13.6719-16.5039L17.6758-16.6992Q18.1152-15.8203 18.6035-14.9902Q19.0918-14.1602 19.5801-13.3301L17.3828-9.81445Q16.6992-8.74023 16.8213-7.44629Q16.9434-6.15234 17.7246-5.17578Q19.7266-2.83203 22.4121-4.00391L26.0742-5.56641Q26.8555-4.88281 27.6123-4.24805Q28.3691-3.61328 29.1504-3.02734L28.2715 0.976562Q27.6855 3.80859 30.2246 5.32227Q32.8125 6.78711 34.9609 4.78516L37.9395 2.09961Q38.8184 2.44141 39.7461 2.7832Q40.6738 3.125 41.6016 3.36914L42.1387 7.37305Q42.5293 10.3516 45.5078 10.8887Q46.8262 11.084 47.9736 10.4492Q49.1211 9.81445 49.707 8.69141L51.5625 5.12695Q52.0996 5.17578 52.5879 5.2002Q53.0762 5.22461 53.5645 5.22461ZM53.5645-7.37305Q47.8027-7.37305 42.749-9.5459Q37.6953-11.7188 33.8867-15.5273Q30.0781-19.3359 27.9053-24.3896Q25.7324-29.4434 25.7324-35.2051Q25.7324-40.9668 27.9053-46.0205Q30.0781-51.0742 33.8867-54.8828Q37.6953-58.6914 42.749-60.8643Q47.8027-63.0371 53.5645-63.0371Q59.3262-63.0371 64.3799-60.8643Q69.4336-58.6914 73.2422-54.8828Q77.0508-51.0742 79.2236-46.0205Q81.3965-40.9668 81.3965-35.2051Q81.3965-29.4434 79.2236-24.3896Q77.0508-19.3359 73.2422-15.5273Q69.4336-11.7188 64.3799-9.5459Q59.3262-7.37305 53.5645-7.37305ZM53.5156-21.3379Q57.373-21.3379 60.8154-23.4619Q64.2578-25.5859 66.0645-29.7852L86.8652-29.7852L86.8164-40.7715L66.1133-40.7715Q64.3066-44.873 60.8398-46.9727Q57.373-49.0723 53.5156-49.0723Q53.1738-49.0723 52.7588-49.0479Q52.3438-49.0234 51.7578-48.9258L41.5039-66.6992L31.7871-62.207L42.627-43.3594Q41.2598-41.4062 40.6006-39.2822Q39.9414-37.1582 39.9414-35.1562Q39.9414-33.2031 40.5518-31.2988Q41.1621-29.3945 42.627-27.3438L31.2988-8.54492L40.8691-3.85742L51.5625-21.4844Q52.1973-21.3867 52.6611-21.3623Q53.125-21.3379 53.5156-21.3379ZM49.0234-35.1562Q49.0234-37.0117 50.3662-38.3057Q51.709-39.5996 53.5156-39.5996Q55.3711-39.5996 56.6406-38.3057Q57.9102-37.0117 57.9102-35.1562Q57.9102-33.3496 56.6406-32.0068Q55.3711-30.6641 53.5156-30.6641Q51.709-30.6641 50.3662-32.0068Q49.0234-33.3496 49.0234-35.1562Z"/>
  </g>
  <g id="Regular-S" transform="matrix(1 0 0 1 1399.72 696)">
   <path class="multicolor-0:systemGrayColor SFSymbolsPreview8E8E93" d="M50.1465 2.24609Q50.8301 2.24609 51.5137 2.17285Q52.1973 2.09961 52.9297 2.09961L55.1758 6.39648Q55.5176 7.08008 56.1768 7.39746Q56.8359 7.71484 57.6172 7.61719Q59.2773 7.32422 59.5215 5.61523L60.2051 0.830078Q61.5234 0.439453 62.8418-0.0488281Q64.1602-0.537109 65.4785-1.07422L68.9941 2.14844Q70.2148 3.32031 71.7773 2.44141Q73.1445 1.61133 72.8516-0.0976562L71.8262-4.83398Q72.9492-5.61523 74.0479-6.49414Q75.1465-7.37305 76.123-8.34961L80.5664-6.54297Q82.1777-5.9082 83.3008-7.22656Q83.7402-7.76367 83.8135-8.52051Q83.8867-9.27734 83.4473-9.91211L80.9082-14.0137Q81.6895-15.1367 82.3486-16.3818Q83.0078-17.627 83.6426-18.8965L88.4766-18.6523Q89.2578-18.6523 89.8926-19.0674Q90.5273-19.4824 90.7715-20.2148Q91.0645-20.9473 90.8203-21.6553Q90.5762-22.3633 89.9902-22.8516L86.1816-25.8301Q86.5234-27.1484 86.792-28.54Q87.0605-29.9316 87.207-31.3477L91.748-32.8125Q93.4082-33.3984 93.4082-35.0098Q93.4082-36.6699 91.748-37.2559L87.207-38.6719Q87.0605-40.1367 86.792-41.5039Q86.5234-42.8711 86.1816-44.2383L89.9902-47.2168Q90.5762-47.7051 90.7959-48.3887Q91.0156-49.0723 90.7715-49.8047Q90.5273-50.5371 89.8926-50.9521Q89.2578-51.3672 88.4766-51.3184L83.6426-51.123Q83.0078-52.4414 82.3486-53.6621Q81.6895-54.8828 80.9082-56.0059L83.4473-60.1074Q83.8867-60.7422 83.8135-61.4746Q83.7402-62.207 83.3008-62.7441Q82.1777-64.1113 80.5664-63.4766L76.123-61.7188Q75.1465-62.6465 74.0479-63.5498Q72.9492-64.4531 71.8262-65.2344L72.8516-69.9219Q73.1445-71.7285 71.7773-72.4609Q70.2148-73.3398 68.9941-72.1191L65.4785-68.9941Q64.1602-69.5312 62.8418-69.9951Q61.5234-70.459 60.2051-70.8984L59.5215-75.6348Q59.2773-77.2949 57.6172-77.6367Q56.8359-77.7344 56.1768-77.417Q55.5176-77.0996 55.1758-76.4648L52.9297-72.1191Q52.1973-72.168 51.5137-72.1924Q50.8301-72.2168 50.1465-72.2168Q49.3652-72.2168 48.7061-72.1924Q48.0469-72.168 47.3145-72.1191L45.0195-76.4648Q44.2871-77.8809 42.5781-77.6367Q40.918-77.2949 40.7227-75.6348L40.0391-70.8984Q38.6719-70.459 37.3535-70.0195Q36.0352-69.5801 34.7656-68.9941L31.2012-72.1191Q30.0293-73.3398 28.418-72.4609Q27.0508-71.7285 27.3926-69.9219L28.3691-65.2344Q27.2461-64.4531 26.1475-63.5498Q25.0488-62.6465 24.0723-61.7188L19.6777-63.4766Q18.0664-64.1113 16.9434-62.7441Q16.4551-62.207 16.4062-61.4746Q16.3574-60.7422 16.748-60.1562L19.2871-56.0059Q18.5059-54.8828 17.8467-53.6621Q17.1875-52.4414 16.5527-51.123L11.7188-51.3184Q10.9375-51.3672 10.3027-50.9521Q9.66797-50.5371 9.42383-49.8047Q9.17969-49.0723 9.39941-48.3887Q9.61914-47.7051 10.2539-47.2168L14.0137-44.2383Q13.6719-42.8711 13.4033-41.5039Q13.1348-40.1367 13.0371-38.6719L8.44727-37.2559Q6.83594-36.6699 6.83594-35.0098Q6.83594-33.3496 8.44727-32.8125L13.0371-31.3477Q13.1348-29.9316 13.4033-28.54Q13.6719-27.1484 14.0137-25.8301L10.2539-22.8516Q9.61914-22.3633 9.39941-21.6553Q9.17969-20.9473 9.42383-20.2148Q9.66797-19.4824 10.3027-19.0674Q10.9375-18.6523 11.7188-18.6523L16.5527-18.8965Q17.1875-17.627 17.8467-16.3818Q18.5059-15.1367 19.2871-14.0137L16.748-9.91211Q16.3574-9.27734 16.4062-8.52051Q16.4551-7.76367 16.9434-7.22656Q18.0664-5.9082 19.6777-6.54297L24.0723-8.34961Q25.0488-7.37305 26.1475-6.49414Q27.2461-5.61523 28.3691-4.83398L27.3926-0.0976562Q27.0508 1.61133 28.418 2.44141Q29.9805 3.32031 31.2012 2.14844L34.7656-1.07422Q36.0352-0.537109 37.3535-0.0488281Q38.6719 0.439453 40.0391 0.830078L40.7227 5.61523Q40.918 7.32422 42.5781 7.61719Q43.3594 7.71484 44.0186 7.39746Q44.6777 7.08008 45.0195 6.39648L47.3145 2.09961Q48.0469 2.09961 48.7061 2.17285Q49.3652 2.24609 50.1465 2.24609ZM50.1465-4.39453Q43.7012-4.39453 38.208-6.7627Q32.7148-9.13086 28.5889-13.3301Q24.4629-17.5293 22.168-23.0713Q19.873-28.6133 19.873-34.9609Q19.873-41.3574 22.168-46.9238Q24.4629-52.4902 28.5889-56.6895Q32.7148-60.8887 38.208-63.2568Q43.7012-65.625 50.1465-65.625Q56.543-65.625 62.0361-63.2568Q67.5293-60.8887 71.6553-56.6895Q75.7812-52.4902 78.0762-46.9238Q80.3711-41.3574 80.3711-34.9609Q80.3711-28.6133 78.0762-23.0713Q75.7812-17.5293 71.6553-13.3301Q67.5293-9.13086 62.0361-6.7627Q56.543-4.39453 50.1465-4.39453ZM50-24.5117Q53.3203-24.5117 55.9082-26.4404Q58.4961-28.3691 60.0098-32.1777L84.375-32.1777L84.3262-37.7441L60.0098-37.7441Q58.4961-41.5039 55.9082-43.4082Q53.3203-45.3125 50-45.3125Q49.5605-45.3125 48.9746-45.2393Q48.3887-45.166 47.4121-44.9707L35.2051-65.8691L30.2246-63.0371L42.627-41.9434Q41.0645-40.1855 40.3564-38.4521Q39.6484-36.7188 39.6484-34.8633Q39.6484-33.1543 40.332-31.4697Q41.0156-29.7852 42.5781-27.9785L29.7363-7.08008L34.6191-4.15039L47.3633-24.8535Q48.291-24.6094 48.9258-24.5605Q49.5605-24.5117 50-24.5117ZM45.752-34.9121Q45.752-36.7676 47.0703-37.9883Q48.3887-39.209 50.0977-39.209Q51.9043-39.209 53.2227-37.9883Q54.541-36.7676 54.541-34.9121Q54.541-33.1055 53.2227-31.8359Q51.9043-30.5664 50.0977-30.5664Q48.3887-30.5664 47.0703-31.8359Q45.752-33.1055 45.752-34.9121Z"/>
  </g>
  <g id="Ultralight-S" transform="matrix(1 0 0 1 510.77 696)">
   <path class="multicolor-0:systemGrayColor SFSymbolsPreview8E8E93" d="M48.9204 2.01874Q49.8764 2.01874 50.8324 1.96838Q51.7883 1.91803 52.7023 1.78146L54.5853 5.3978Q54.8363 5.89905 55.2002 6.08025Q55.5641 6.26144 56.3004 6.16379Q57.4608 6.0524 57.5691 4.84314L58.1619 0.830078Q59.9792 0.393677 61.7519-0.253296Q63.5246-0.900269 65.2061-1.70975L68.177 0.876617Q68.898 1.68533 70.0516 1.12457Q70.9648 0.70343 70.7626-0.597382L69.9646-4.47083Q71.5416-5.52444 72.9809-6.72112Q74.4202-7.91779 75.7141-9.30328L79.3404-7.81479Q80.3162-7.22504 81.2576-8.31604Q81.7879-8.76236 81.7928-9.17892Q81.7978-9.59549 81.3583-10.1395L79.2282-13.5597Q80.3726-15.0459 81.3271-16.6996Q82.2815-18.3533 83.007-20.0317L87.0232-19.8334Q87.7136-19.7876 88.0306-20.0211Q88.3476-20.2545 88.5468-20.8504Q88.7489-21.492 88.641-21.8822Q88.533-22.2725 87.9921-22.67L84.8648-25.1945Q85.3882-26.9669 85.6796-28.8353Q85.9711-30.7037 86.1176-32.6195L89.9315-33.7662Q91.0469-34.2155 91.0469-35.3279Q91.0469-36.4426 89.9315-36.8927L86.1176-38.0814Q85.9711-40.0002 85.6567-41.8671Q85.3424-43.734 84.8648-45.5101L87.9921-47.9889Q88.4872-48.3406 88.5937-48.7293Q88.7001-49.118 88.5468-49.7589Q88.3476-50.4005 88.0306-50.6115Q87.7136-50.8224 87.0232-50.8186L83.007-50.6691Q82.2357-52.3506 81.3042-53.9799Q80.3726-55.6091 79.2282-57.1411L81.3583-60.5164Q81.7528-61.0603 81.7474-61.4521Q81.7421-61.8439 81.2576-62.3352Q80.3162-63.43 79.3404-62.841L75.7141-61.3556Q74.4202-62.7373 72.9809-63.9359Q71.5416-65.1344 69.9646-66.1423L70.7626-70.0127Q70.9648-71.3196 70.0516-71.7796Q68.943-72.3412 68.177-71.5744L65.2061-68.9484Q63.5246-69.7586 61.7519-70.3812Q59.9792-71.0037 58.1619-71.4432L57.5691-75.4532Q57.4608-76.6594 56.2546-76.8196Q55.5641-76.8715 55.2002-76.6903Q54.8363-76.5091 54.5853-76.0559L52.7023-72.3915Q51.7883-72.4861 50.8324-72.5559Q49.8764-72.6257 48.9204-72.6257Q48.0484-72.6257 47.1169-72.5559Q46.1853-72.4861 45.2255-72.3915L43.3395-76.0559Q42.8795-76.9272 41.6245-76.8196Q40.464-76.6594 40.3595-75.4532L39.7667-71.489Q37.9456-71.0495 36.1729-70.4056Q34.4002-69.7617 32.7225-68.9484L29.7478-71.5286Q28.9398-72.2954 27.8732-71.7796Q26.96-71.3196 27.1652-70.0127L27.9602-66.1423Q26.3832-65.1344 24.9439-63.9359Q23.5046-62.7373 22.2107-61.3556L18.5425-62.841Q17.6125-63.43 16.671-62.3352Q16.1827-61.8439 16.1564-61.4521Q16.1301-61.0603 16.5207-60.5652L18.6966-57.1411Q17.598-55.6091 16.6435-53.9799Q15.6891-52.3506 14.9178-50.6691L10.9016-50.8186Q10.2112-50.8224 9.89418-50.6115Q9.57718-50.4005 9.37805-49.7589Q9.0889-49.118 9.21783-48.7293Q9.34677-48.3406 9.93576-47.9889L13.06-45.5101Q12.5824-43.734 12.2456-41.8671Q11.9087-40.0002 11.7653-38.1271L7.99332-36.8927Q6.83594-36.4883 6.83594-35.3279Q6.83594-34.1667 7.99332-33.7662L11.7653-32.5737Q11.9087-30.658 12.2227-28.8124Q12.5366-26.9669 13.06-25.1945L9.93576-22.67Q9.39178-22.3175 9.26285-21.9501Q9.13391-21.5828 9.37805-20.8504Q9.57718-20.2545 9.89418-20.0211Q10.2112-19.7876 10.9016-19.8334L14.9178-20.0317Q15.6433-18.3533 16.6206-16.6996Q17.598-15.0459 18.6516-13.5597L16.5665-10.1395Q16.1301-9.59549 16.1335-9.17892Q16.1369-8.76236 16.671-8.31604Q17.6125-7.22504 18.5425-7.81479L22.2107-9.30328Q23.5046-7.91779 24.9439-6.72112Q26.3832-5.52444 27.9602-4.47083L27.1652-0.597382Q26.96 0.70343 27.8732 1.12457Q28.9818 1.64032 29.7478 0.876617L32.6767-1.70975Q34.3552-0.900269 36.1504-0.253296Q37.9456 0.393677 39.7667 0.875854L40.3595 4.84314Q40.464 6.0524 41.6702 6.16379Q42.3607 6.26144 42.7246 6.08025Q43.0885 5.89905 43.3395 5.3978L45.2255 1.78146Q46.0945 1.91803 47.0715 1.96838Q48.0484 2.01874 48.9204 2.01874ZM48.9204-0.125885Q41.658-0.125885 35.3474-2.8347Q29.0367-5.54352 24.2977-10.3558Q19.5587-15.168 16.9006-21.55Q14.2426-27.932 14.2426-35.3241Q14.2426-42.72 16.9006-49.1035Q19.5587-55.4871 24.2977-60.2993Q29.0367-65.1115 35.3474-67.7979Q41.658-70.4842 48.9204-70.4842Q56.2248-70.4842 62.5355-67.7979Q68.8461-65.1115 73.5851-60.2993Q78.3241-55.4871 81.0051-49.1035Q83.6861-42.72 83.6861-35.3241Q83.6861-27.932 81.0051-21.55Q78.3241-15.168 73.5851-10.3558Q68.8461-5.54352 62.5355-2.8347Q56.2248-0.125885 48.9204-0.125885ZM49.0463-26.6457Q52.2758-26.6457 54.6368-28.7563Q56.9977-30.867 57.3761-34.0393L85.7376-34.0393L85.6888-36.4273L57.3303-36.4273Q56.8161-39.4608 54.4777-41.4783Q52.1393-43.4959 49.0463-43.4959Q48.1979-43.4959 47.4533-43.3548Q46.7087-43.2137 45.9587-42.8818L31.6628-67.4583L29.4525-66.3063L43.808-41.671Q42.3363-40.5037 41.4463-38.7928Q40.5563-37.0819 40.5563-35.0906Q40.5563-32.9727 41.5352-31.1974Q42.514-29.422 44.1223-28.2509L29.509-4.03748L31.7131-2.69699L46.2738-27.0782Q46.9742-26.8799 47.6315-26.7628Q48.2887-26.6457 49.0463-26.6457ZM42.9817-35.0937Q42.9817-37.5397 44.7544-39.3051Q46.5271-41.0706 49.0082-41.0706Q51.4954-41.0706 53.2681-39.3051Q55.0407-37.5397 55.0407-35.0937Q55.0407-32.6057 53.2681-30.814Q51.4954-29.0222 49.0082-29.0222Q46.5271-29.0222 44.7544-30.814Q42.9817-32.6057 42.9817-35.0937Z"/>
  </g>
 </g>
</svg>
