<?xml version="1.0" encoding="UTF-8" standalone="no"?>
<svg xmlns="http://www.w3.org/2000/svg" viewBox="0 0 179.8 124.6" width="179.8" height="124.6">
  <title>SignPath mark</title>
  <path fill="#22ccff" d="M106.3 0H35.5L0 61.4l35.4 61.4h70.9l35.4-61.4zm1.7 68.6c-.7 1.6-2.3 2.6-4.1 2.6H67.1c-2.5 0-4.5-2-4.5-4.5s2-4.5 4.5-4.5H93.9L83.4 50.3a4.43 4.43 0 0 1 0-5.9L93.9 32.5H49.6v71.2c0 2.5-2 4.5-4.5 4.5s-4.5-2-4.5-4.5V18.9c0-2.5 2-4.5 4.5-4.5s4.5 2 4.5 4.5v4.6h54.3c1.8 0 3.4 1 4.1 2.6.7 1.6.4 3.5-.7 4.8L92.9 47.3l14.4 16.4c1.1 1.4 1.4 3.3.7 4.9z"/>
</svg>
